<svg width="33" height="33" viewBox="0 0 33 33" fill="none" xmlns="http://www.w3.org/2000/svg">
<path d="M10.9001 2.78516H22.1001C26.3668 2.78516 29.8334 6.25182 29.8334 10.5185V21.7185C29.8334 23.7695 29.0187 25.7365 27.5684 27.1868C26.1181 28.6371 24.1511 29.4518 22.1001 29.4518H10.9001C6.63341 29.4518 3.16675 25.9852 3.16675 21.7185V10.5185C3.16675 8.46748 3.98151 6.50048 5.43179 5.0502C6.88207 3.59992 8.84907 2.78516 10.9001 2.78516ZM10.6334 5.45182C9.36038 5.45182 8.13948 5.95754 7.2393 6.85771C6.33913 7.75789 5.83341 8.97878 5.83341 10.2518V21.9852C5.83341 24.6385 7.98008 26.7852 10.6334 26.7852H22.3667C23.6398 26.7852 24.8607 26.2794 25.7609 25.3793C26.661 24.4791 27.1667 23.2582 27.1667 21.9852V10.2518C27.1667 7.59849 25.0201 5.45182 22.3667 5.45182H10.6334ZM23.5001 7.45182C23.9421 7.45182 24.366 7.62742 24.6786 7.93998C24.9912 8.25254 25.1667 8.67646 25.1667 9.11849C25.1667 9.56052 24.9912 9.98444 24.6786 10.297C24.366 10.6096 23.9421 10.7852 23.5001 10.7852C23.0581 10.7852 22.6341 10.6096 22.3216 10.297C22.009 9.98444 21.8334 9.56052 21.8334 9.11849C21.8334 8.67646 22.009 8.25254 22.3216 7.93998C22.6341 7.62742 23.0581 7.45182 23.5001 7.45182ZM16.5001 9.45182C18.2682 9.45182 19.9639 10.1542 21.2141 11.4044C22.4644 12.6547 23.1667 14.3504 23.1667 16.1185C23.1667 17.8866 22.4644 19.5823 21.2141 20.8325C19.9639 22.0828 18.2682 22.7852 16.5001 22.7852C14.732 22.7852 13.0363 22.0828 11.786 20.8325C10.5358 19.5823 9.83342 17.8866 9.83342 16.1185C9.83342 14.3504 10.5358 12.6547 11.786 11.4044C13.0363 10.1542 14.732 9.45182 16.5001 9.45182ZM16.5001 12.1185C15.4392 12.1185 14.4218 12.5399 13.6717 13.2901C12.9215 14.0402 12.5001 15.0576 12.5001 16.1185C12.5001 17.1794 12.9215 18.1968 13.6717 18.9469C14.4218 19.6971 15.4392 20.1185 16.5001 20.1185C17.5609 20.1185 18.5784 19.6971 19.3285 18.9469C20.0787 18.1968 20.5001 17.1794 20.5001 16.1185C20.5001 15.0576 20.0787 14.0402 19.3285 13.2901C18.5784 12.5399 17.5609 12.1185 16.5001 12.1185Z" fill="white"/>
</svg>
