<svg width="17" height="18" viewBox="0 0 17 18" fill="none" xmlns="http://www.w3.org/2000/svg">
<g clip-path="url(#clip0_632_2493)">
<path d="M0 1.44223C0 0.769672 0.558875 0.224609 1.24844 0.224609H15.7516C16.4411 0.224609 17 0.769672 17 1.44223V16.007C17 16.6795 16.4411 17.2246 15.7516 17.2246H1.24844C0.558875 17.2246 0 16.6795 0 16.007V1.44223ZM5.25194 14.4557V6.77917H2.70088V14.4557H5.25194ZM3.97694 5.73048C4.86625 5.73048 5.41981 5.14186 5.41981 4.40448C5.40387 3.65117 4.86731 3.07848 3.99394 3.07848C3.12056 3.07848 2.55 3.65223 2.55 4.40448C2.55 5.14186 3.10356 5.73048 3.95994 5.73048H3.97694ZM9.19169 14.4557V10.1685C9.19169 9.93905 9.20869 9.70955 9.27669 9.54592C9.4605 9.08798 9.88019 8.61305 10.5857 8.61305C11.509 8.61305 11.8777 9.31642 11.8777 10.3492V14.4557H14.4288V10.0527C14.4288 7.69398 13.1707 6.59748 11.492 6.59748C10.1384 6.59748 9.53169 7.34123 9.19169 7.86505V7.89161H9.17469C9.18033 7.88274 9.186 7.87389 9.19169 7.86505V6.77917H6.64169C6.67356 7.49955 6.64169 14.4557 6.64169 14.4557H9.19169Z" fill="#D4B754"/>
</g>
<defs>
<clipPath id="clip0_632_2493">
<rect width="17" height="17" fill="white" transform="translate(0 0.224609)"/>
</clipPath>
</defs>
</svg>
