<svg width="8" height="9" viewBox="0 0 8 9" fill="none" xmlns="http://www.w3.org/2000/svg">
<g clip-path="url(#clip0_986_81)">
<path d="M0 1.10279C0 0.786285 0.263 0.529785 0.5875 0.529785H7.4125C7.737 0.529785 8 0.786285 8 1.10279V7.95679C8 8.27329 7.737 8.52979 7.4125 8.52979H0.5875C0.263 8.52979 0 8.27329 0 7.95679V1.10279ZM2.4715 7.22679V3.61429H1.271V7.22679H2.4715ZM1.8715 3.12079C2.29 3.12079 2.5505 2.84379 2.5505 2.49679C2.543 2.14229 2.2905 1.87279 1.8795 1.87279C1.4685 1.87279 1.2 2.14279 1.2 2.49679C1.2 2.84379 1.4605 3.12079 1.8635 3.12079H1.8715ZM4.3255 7.22679V5.20929C4.3255 5.10129 4.3335 4.99329 4.3655 4.91629C4.452 4.70079 4.6495 4.47729 4.9815 4.47729C5.416 4.47729 5.5895 4.80829 5.5895 5.29429V7.22679H6.79V5.15479C6.79 4.04479 6.198 3.52879 5.408 3.52879C4.771 3.52879 4.4855 3.87879 4.3255 4.12529V4.13779H4.3175C4.32016 4.13361 4.32282 4.12944 4.3255 4.12529V3.61429H3.1255C3.1405 3.95329 3.1255 7.22679 3.1255 7.22679H4.3255Z" fill="#F9F5EC"/>
</g>
<defs>
<clipPath id="clip0_986_81">
<rect width="8" height="8" fill="white" transform="translate(0 0.529785)"/>
</clipPath>
</defs>
</svg>
