<svg width="33" height="33" viewBox="0 0 33 33" fill="none" xmlns="http://www.w3.org/2000/svg">
<path d="M30.4466 8.11882C29.4199 8.58548 28.3132 8.89215 27.1666 9.03882C28.3399 8.33215 29.2466 7.21215 29.6732 5.86548C28.5666 6.53215 27.3399 6.99882 26.0466 7.26548C24.9932 6.11882 23.5132 5.45215 21.8332 5.45215C18.6999 5.45215 16.1399 8.01215 16.1399 11.1721C16.1399 11.6255 16.1932 12.0655 16.2866 12.4788C11.5399 12.2388 7.31322 9.95882 4.49989 6.50548C4.00656 7.34548 3.72656 8.33215 3.72656 9.37215C3.72656 11.3588 4.72656 13.1188 6.27322 14.1188C5.32656 14.1188 4.44656 13.8521 3.67322 13.4521V13.4921C3.67322 16.2655 5.64656 18.5855 8.25989 19.1055C7.42086 19.3351 6.54002 19.367 5.68656 19.1988C6.0487 20.3355 6.75794 21.33 7.71458 22.0427C8.67122 22.7554 9.82715 23.1504 11.0199 23.1721C8.99806 24.7727 6.49188 25.6379 3.91322 25.6255C3.45989 25.6255 3.00656 25.5988 2.55322 25.5455C5.08656 27.1721 8.09989 28.1188 11.3266 28.1188C21.8332 28.1188 27.6066 19.3988 27.6066 11.8388C27.6066 11.5855 27.6066 11.3455 27.5932 11.0921C28.7132 10.2921 29.6732 9.27882 30.4466 8.11882Z" fill="white"/>
</svg>
