<svg width="20" height="20" viewBox="0 0 20 20" fill="none" xmlns="http://www.w3.org/2000/svg">
<path d="M15.8752 4.09107C15.1112 3.31934 14.2011 2.70746 13.1982 2.29111C12.1952 1.87476 11.1194 1.66228 10.0335 1.66607C5.4835 1.66607 1.77516 5.3744 1.77516 9.9244C1.77516 11.3827 2.1585 12.7994 2.87516 14.0494L1.7085 18.3327L6.0835 17.1827C7.29183 17.8411 8.65016 18.1911 10.0335 18.1911C14.5835 18.1911 18.2918 14.4827 18.2918 9.93273C18.2918 7.7244 17.4335 5.6494 15.8752 4.09107ZM10.0335 16.7911C8.80016 16.7911 7.59183 16.4577 6.5335 15.8327L6.2835 15.6827L3.6835 16.3661L4.37516 13.8327L4.2085 13.5744C3.52328 12.4802 3.15945 11.2154 3.1585 9.9244C3.1585 6.14107 6.24183 3.05773 10.0252 3.05773C11.8585 3.05773 13.5835 3.7744 14.8752 5.0744C15.5147 5.71104 16.0216 6.46828 16.3663 7.30225C16.7111 8.13622 16.8869 9.03032 16.8835 9.93273C16.9002 13.7161 13.8168 16.7911 10.0335 16.7911ZM13.8002 11.6577C13.5918 11.5577 12.5752 11.0577 12.3918 10.9827C12.2002 10.9161 12.0668 10.8827 11.9252 11.0827C11.7835 11.2911 11.3918 11.7577 11.2752 11.8911C11.1585 12.0327 11.0335 12.0494 10.8252 11.9411C10.6168 11.8411 9.95016 11.6161 9.16683 10.9161C8.55016 10.3661 8.14183 9.69107 8.01683 9.48273C7.90016 9.2744 8.00016 9.16607 8.1085 9.05773C8.20016 8.96607 8.31683 8.81607 8.41683 8.6994C8.51683 8.58273 8.5585 8.49107 8.62516 8.35773C8.69183 8.21607 8.6585 8.0994 8.6085 7.9994C8.5585 7.8994 8.14183 6.88273 7.97516 6.46607C7.8085 6.06607 7.6335 6.11607 7.5085 6.10773H7.1085C6.96683 6.10773 6.75016 6.15773 6.5585 6.36607C6.37516 6.5744 5.84183 7.0744 5.84183 8.09107C5.84183 9.10773 6.5835 10.0911 6.6835 10.2244C6.7835 10.3661 8.14183 12.4494 10.2085 13.3411C10.7002 13.5577 11.0835 13.6827 11.3835 13.7744C11.8752 13.9327 12.3252 13.9077 12.6835 13.8577C13.0835 13.7994 13.9085 13.3577 14.0752 12.8744C14.2502 12.3911 14.2502 11.9827 14.1918 11.8911C14.1335 11.7994 14.0085 11.7577 13.8002 11.6577Z" fill="#D4B754"/>
</svg>
