<svg width="10" height="11" viewBox="0 0 10 11" fill="none" xmlns="http://www.w3.org/2000/svg">
<path d="M7.93734 2.3512C7.55534 1.96533 7.10033 1.65939 6.59885 1.45122C6.09738 1.24304 5.55947 1.13681 5.0165 1.1387C2.7415 1.1387 0.887337 2.99286 0.887337 5.26786C0.887337 5.99703 1.079 6.70536 1.43734 7.33036L0.854004 9.47203L3.0415 8.89703C3.64567 9.2262 4.32484 9.4012 5.0165 9.4012C7.2915 9.4012 9.14567 7.54703 9.14567 5.27203C9.14567 4.16786 8.7165 3.13036 7.93734 2.3512ZM5.0165 8.7012C4.39984 8.7012 3.79567 8.53453 3.2665 8.22203L3.1415 8.14703L1.8415 8.4887L2.18734 7.22203L2.104 7.09286C1.7614 6.54577 1.57948 5.91338 1.579 5.26786C1.579 3.3762 3.12067 1.83453 5.01234 1.83453C5.929 1.83453 6.7915 2.19286 7.43734 2.84286C7.75712 3.16118 8.01055 3.53981 8.18292 3.95679C8.35529 4.37378 8.44318 4.82083 8.4415 5.27203C8.44984 7.1637 6.90817 8.7012 5.0165 8.7012ZM6.89984 6.13453C6.79567 6.08453 6.28734 5.83453 6.19567 5.79703C6.09984 5.7637 6.03317 5.74703 5.96234 5.84703C5.8915 5.9512 5.69567 6.18453 5.63734 6.2512C5.579 6.32203 5.5165 6.33036 5.41234 6.2762C5.30817 6.2262 4.97484 6.1137 4.58317 5.7637C4.27484 5.4887 4.07067 5.1512 4.00817 5.04703C3.94984 4.94286 3.99984 4.8887 4.054 4.83453C4.09984 4.7887 4.15817 4.7137 4.20817 4.65536C4.25817 4.59703 4.279 4.5512 4.31234 4.48453C4.34567 4.4137 4.329 4.35536 4.304 4.30536C4.279 4.25536 4.07067 3.74703 3.98734 3.5387C3.904 3.3387 3.8165 3.3637 3.754 3.35953H3.554C3.48317 3.35953 3.37484 3.38453 3.279 3.4887C3.18734 3.59286 2.92067 3.84286 2.92067 4.3512C2.92067 4.85953 3.2915 5.3512 3.3415 5.41786C3.3915 5.4887 4.07067 6.53036 5.104 6.9762C5.34984 7.08453 5.5415 7.14703 5.6915 7.19286C5.93734 7.27203 6.16234 7.25953 6.3415 7.23453C6.5415 7.20536 6.954 6.98453 7.03734 6.74286C7.12484 6.5012 7.12484 6.29703 7.09567 6.2512C7.0665 6.20536 7.004 6.18453 6.89984 6.13453Z" fill="#F9F5EC"/>
</svg>
