<svg width="33" height="33" viewBox="0 0 33 33" fill="none" xmlns="http://www.w3.org/2000/svg">
<path d="M13.8334 20.1185L20.7534 16.1185L13.8334 12.1185V20.1185ZM29.2467 9.67849C29.4201 10.3052 29.5401 11.1452 29.6201 12.2118C29.7134 13.2785 29.7534 14.1985 29.7534 14.9985L29.8334 16.1185C29.8334 19.0385 29.6201 21.1852 29.2467 22.5585C28.9134 23.7585 28.1401 24.5318 26.9401 24.8652C26.3134 25.0385 25.1667 25.1585 23.4067 25.2385C21.6734 25.3318 20.0867 25.3718 18.6201 25.3718L16.5001 25.4518C10.9134 25.4518 7.43341 25.2385 6.06008 24.8652C4.86008 24.5318 4.08675 23.7585 3.75341 22.5585C3.58008 21.9318 3.46008 21.0918 3.38008 20.0252C3.28675 18.9585 3.24675 18.0385 3.24675 17.2385L3.16675 16.1185C3.16675 13.1985 3.38008 11.0518 3.75341 9.67849C4.08675 8.47849 4.86008 7.70516 6.06008 7.37182C6.68675 7.19849 7.83342 7.07849 9.59342 6.99849C11.3267 6.90516 12.9134 6.86516 14.3801 6.86516L16.5001 6.78516C22.0867 6.78516 25.5667 6.99849 26.9401 7.37182C28.1401 7.70516 28.9134 8.47849 29.2467 9.67849Z" fill="white"/>
</svg>
