<svg width="32" height="32" viewBox="0 0 32 32" fill="none" xmlns="http://www.w3.org/2000/svg">
<path d="M13.3334 20L20.2534 16L13.3334 12V20ZM28.7467 9.55999C28.9201 10.1867 29.0401 11.0267 29.1201 12.0933C29.2134 13.16 29.2534 14.08 29.2534 14.88L29.3334 16C29.3334 18.92 29.1201 21.0667 28.7467 22.44C28.4134 23.64 27.6401 24.4133 26.4401 24.7467C25.8134 24.92 24.6667 25.04 22.9067 25.12C21.1734 25.2133 19.5867 25.2533 18.1201 25.2533L16.0001 25.3333C10.4134 25.3333 6.93341 25.12 5.56008 24.7467C4.36008 24.4133 3.58675 23.64 3.25341 22.44C3.08008 21.8133 2.96008 20.9733 2.88008 19.9067C2.78675 18.84 2.74675 17.92 2.74675 17.12L2.66675 16C2.66675 13.08 2.88008 10.9333 3.25341 9.55999C3.58675 8.35999 4.36008 7.58666 5.56008 7.25332C6.18675 7.07999 7.33342 6.95999 9.09342 6.87999C10.8267 6.78666 12.4134 6.74666 13.8801 6.74666L16.0001 6.66666C21.5867 6.66666 25.0667 6.87999 26.4401 7.25332C27.6401 7.58666 28.4134 8.35999 28.7467 9.55999Z" fill="#D4B754"/>
</svg>
